<svg width="1131" height="863" viewBox="0 0 1131 863" fill="none" xmlns="http://www.w3.org/2000/svg">
<g clip-path="url(#clip0)" filter="url(#filter0_d)">
<path d="M548.864 755.938C306.465 737.491 17.3935 549.672 32.1106 356.281C46.8277 162.889 326.797 -17.1415 569.196 1.30503C811.595 19.7516 951.128 381.167 936.411 574.558C921.693 767.949 791.263 774.385 548.864 755.938Z" fill="#E2E5EC"/>
<path d="M569.194 787C848.65 787 1075.19 773.121 1075.19 756C1075.19 738.879 848.65 725 569.194 725C289.737 725 63.1935 738.879 63.1935 756C63.1935 773.121 289.737 787 569.194 787Z" fill="#3F3D56"/>
<path opacity="0.1" d="M569.194 776C807.228 776 1000.19 766.822 1000.19 755.5C1000.19 744.178 807.228 735 569.194 735C331.159 735 138.194 744.178 138.194 755.5C138.194 766.822 331.159 776 569.194 776Z" fill="black"/>
<path d="M216.194 855C333.385 855 428.387 846.717 428.387 836.5C428.387 826.283 333.385 818 216.194 818C99.0023 818 4 826.283 4 836.5C4 846.717 99.0023 855 216.194 855Z" fill="#3F3D56"/>
<path opacity="0.1" d="M216.194 848.435C316.015 848.435 396.935 842.958 396.935 836.202C396.935 829.445 316.015 823.968 216.194 823.968C116.373 823.968 35.4516 829.445 35.4516 836.202C35.4516 842.958 116.373 848.435 216.194 848.435Z" fill="black"/>
<path d="M952.194 162H200.194V752H952.194V162Z" fill="#3F3D56"/>
<path d="M567.638 242.629H382.12C381.824 242.63 381.531 242.572 381.257 242.459C380.984 242.346 380.735 242.181 380.525 241.971C380.316 241.762 380.15 241.514 380.036 241.24C379.923 240.967 379.864 240.674 379.864 240.378C379.864 240.082 379.923 239.789 380.036 239.515C380.15 239.242 380.316 238.993 380.525 238.784C380.735 238.575 380.984 238.409 381.257 238.296C381.531 238.183 381.824 238.126 382.12 238.126H567.638C568.234 238.128 568.806 238.365 569.227 238.787C569.648 239.209 569.885 239.781 569.885 240.378C569.885 240.974 569.648 241.546 569.227 241.968C568.806 242.39 568.234 242.628 567.638 242.629Z" fill="#F2F2F2"/>
<path d="M770.717 267.395H478.932C478.335 267.395 477.762 267.158 477.34 266.735C476.918 266.313 476.68 265.741 476.68 265.143C476.68 264.546 476.918 263.974 477.34 263.551C477.762 263.129 478.335 262.892 478.932 262.892H770.717C771.013 262.892 771.305 262.95 771.579 263.063C771.852 263.177 772.1 263.342 772.309 263.551C772.518 263.76 772.684 264.009 772.797 264.282C772.91 264.555 772.968 264.848 772.968 265.143C772.968 265.439 772.91 265.732 772.797 266.005C772.684 266.278 772.518 266.526 772.309 266.735C772.1 266.945 771.852 267.11 771.579 267.223C771.305 267.337 771.013 267.395 770.717 267.395Z" fill="#F2F2F2"/>
<path d="M568.539 292.161H383.021C382.424 292.161 381.851 291.923 381.429 291.501C381.007 291.079 380.77 290.506 380.77 289.909C380.77 289.312 381.007 288.739 381.429 288.317C381.851 287.895 382.424 287.658 383.021 287.658H568.539C569.136 287.658 569.708 287.895 570.131 288.317C570.553 288.739 570.79 289.312 570.79 289.909C570.79 290.506 570.553 291.079 570.131 291.501C569.708 291.923 569.136 292.161 568.539 292.161Z" fill="#F2F2F2"/>
<path d="M770.717 292.611H585.199C584.602 292.611 584.029 292.374 583.607 291.951C583.185 291.529 582.948 290.957 582.948 290.359C582.948 289.762 583.185 289.19 583.607 288.767C584.029 288.345 584.602 288.108 585.199 288.108H770.717C771.314 288.108 771.887 288.345 772.309 288.767C772.731 289.19 772.968 289.762 772.968 290.359C772.968 290.957 772.731 291.529 772.309 291.951C771.887 292.374 771.314 292.611 770.717 292.611Z" fill="#F2F2F2"/>
<path d="M568.989 316.926H383.471C382.874 316.926 382.301 316.689 381.879 316.267C381.457 315.845 381.22 315.272 381.22 314.675C381.22 314.078 381.457 313.505 381.879 313.083C382.301 312.661 382.874 312.423 383.471 312.423H568.989C569.586 312.423 570.159 312.661 570.581 313.083C571.003 313.505 571.24 314.078 571.24 314.675C571.24 315.272 571.003 315.845 570.581 316.267C570.159 316.689 569.586 316.926 568.989 316.926Z" fill="#F2F2F2"/>
<path d="M569.439 341.692H383.922C383.324 341.692 382.752 341.455 382.33 341.033C381.907 340.61 381.67 340.038 381.67 339.441C381.67 338.843 381.907 338.271 382.33 337.849C382.752 337.426 383.324 337.189 383.922 337.189H569.439C570.036 337.189 570.609 337.426 571.031 337.849C571.454 338.271 571.691 338.843 571.691 339.441C571.691 340.038 571.454 340.61 571.031 341.033C570.609 341.455 570.036 341.692 569.439 341.692Z" fill="#F2F2F2"/>
<path d="M653.643 243.079H600.509C599.912 243.079 599.339 242.842 598.917 242.42C598.495 241.998 598.258 241.425 598.258 240.828C598.258 240.231 598.495 239.658 598.917 239.236C599.339 238.814 599.912 238.577 600.509 238.577H653.643C654.24 238.577 654.812 238.814 655.235 239.236C655.657 239.658 655.894 240.231 655.894 240.828C655.894 241.425 655.657 241.998 655.235 242.42C654.812 242.842 654.24 243.079 653.643 243.079Z" fill="#F2F2F2"/>
<path d="M653.643 316.926H600.509C599.912 316.926 599.339 316.689 598.917 316.267C598.495 315.845 598.258 315.272 598.258 314.675C598.258 314.078 598.495 313.505 598.917 313.083C599.339 312.661 599.912 312.423 600.509 312.423H653.643C654.24 312.423 654.812 312.661 655.235 313.083C655.657 313.505 655.894 314.078 655.894 314.675C655.894 315.272 655.657 315.845 655.235 316.267C654.812 316.689 654.24 316.926 653.643 316.926Z" fill="#F2F2F2"/>
<path d="M653.643 341.242H600.509C600.213 341.242 599.92 341.185 599.646 341.072C599.372 340.959 599.123 340.793 598.914 340.584C598.704 340.375 598.538 340.126 598.425 339.853C598.311 339.58 598.253 339.286 598.253 338.99C598.253 338.694 598.311 338.401 598.425 338.128C598.538 337.854 598.704 337.606 598.914 337.397C599.123 337.187 599.372 337.022 599.646 336.909C599.92 336.796 600.213 336.738 600.509 336.739H653.643C653.939 336.738 654.232 336.796 654.506 336.909C654.779 337.022 655.028 337.187 655.238 337.397C655.447 337.606 655.614 337.854 655.727 338.128C655.84 338.401 655.899 338.694 655.899 338.99C655.899 339.286 655.84 339.58 655.727 339.853C655.614 340.126 655.447 340.375 655.238 340.584C655.028 340.793 654.779 340.959 654.506 341.072C654.232 341.185 653.939 341.242 653.643 341.242Z" fill="#F2F2F2"/>
<path d="M742.799 341.242H689.666C689.069 341.24 688.498 341.003 688.077 340.581C687.655 340.159 687.419 339.587 687.419 338.99C687.419 338.394 687.655 337.822 688.077 337.4C688.498 336.978 689.069 336.74 689.666 336.739H742.799C743.095 336.738 743.389 336.796 743.662 336.909C743.936 337.022 744.185 337.187 744.394 337.397C744.604 337.606 744.77 337.854 744.884 338.128C744.997 338.401 745.055 338.694 745.055 338.99C745.055 339.286 744.997 339.58 744.884 339.853C744.77 340.126 744.604 340.375 744.394 340.584C744.185 340.793 743.936 340.959 743.662 341.072C743.389 341.185 743.095 341.242 742.799 341.242Z" fill="#F2F2F2"/>
<path d="M434.804 267.395H381.67C381.073 267.395 380.5 267.158 380.078 266.735C379.656 266.313 379.419 265.741 379.419 265.143C379.419 264.546 379.656 263.974 380.078 263.551C380.5 263.129 381.073 262.892 381.67 262.892H434.804C435.401 262.892 435.974 263.129 436.396 263.551C436.818 263.974 437.055 264.546 437.055 265.143C437.055 265.741 436.818 266.313 436.396 266.735C435.974 267.158 435.401 267.395 434.804 267.395Z" fill="#F2F2F2"/>
<path d="M567.863 607.361H382.346C381.748 607.361 381.176 607.123 380.754 606.701C380.331 606.279 380.094 605.706 380.094 605.109C380.094 604.512 380.331 603.939 380.754 603.517C381.176 603.095 381.748 602.858 382.346 602.858H567.863C568.46 602.858 569.033 603.095 569.455 603.517C569.878 603.939 570.115 604.512 570.115 605.109C570.115 605.706 569.878 606.279 569.455 606.701C569.033 607.123 568.46 607.361 567.863 607.361Z" fill="#F2F2F2"/>
<path d="M566.963 656.892H381.445C380.848 656.892 380.275 656.655 379.853 656.233C379.431 655.81 379.194 655.238 379.194 654.641C379.194 654.043 379.431 653.471 379.853 653.049C380.275 652.626 380.848 652.389 381.445 652.389H566.963C567.56 652.389 568.132 652.626 568.555 653.049C568.977 653.471 569.214 654.043 569.214 654.641C569.214 655.238 568.977 655.81 568.555 656.233C568.132 656.655 567.56 656.892 566.963 656.892Z" fill="#F2F2F2"/>
<path d="M567.413 681.658H381.895C381.599 681.658 381.306 681.601 381.032 681.488C380.759 681.375 380.51 681.209 380.3 681C380.091 680.791 379.924 680.542 379.811 680.269C379.697 679.996 379.639 679.702 379.639 679.406C379.639 679.11 379.697 678.817 379.811 678.544C379.924 678.27 380.091 678.022 380.3 677.813C380.51 677.604 380.759 677.438 381.032 677.325C381.306 677.212 381.599 677.154 381.895 677.155H567.413C567.709 677.154 568.002 677.212 568.276 677.325C568.55 677.438 568.798 677.604 569.008 677.813C569.218 678.022 569.384 678.27 569.497 678.544C569.611 678.817 569.669 679.11 569.669 679.406C569.669 679.702 569.611 679.996 569.497 680.269C569.384 680.542 569.218 680.791 569.008 681C568.798 681.209 568.55 681.375 568.276 681.488C568.002 681.601 567.709 681.658 567.413 681.658Z" fill="#F2F2F2"/>
<path d="M646.663 657.342H593.53C592.932 657.342 592.36 657.105 591.938 656.683C591.515 656.261 591.278 655.688 591.278 655.091C591.278 654.494 591.515 653.921 591.938 653.499C592.36 653.077 592.932 652.839 593.53 652.839H646.663C647.26 652.839 647.833 653.077 648.255 653.499C648.677 653.921 648.915 654.494 648.915 655.091C648.915 655.688 648.677 656.261 648.255 656.683C647.833 657.105 647.26 657.342 646.663 657.342Z" fill="#F2F2F2"/>
<path d="M646.663 681.658H593.53C592.932 681.658 592.36 681.421 591.938 680.998C591.515 680.576 591.278 680.003 591.278 679.406C591.278 678.809 591.515 678.236 591.938 677.814C592.36 677.392 592.932 677.155 593.53 677.155H646.663C647.26 677.155 647.833 677.392 648.255 677.814C648.677 678.236 648.915 678.809 648.915 679.406C648.915 680.003 648.677 680.576 648.255 680.998C647.833 681.421 647.26 681.658 646.663 681.658Z" fill="#F2F2F2"/>
<path d="M735.82 657.342H682.686C682.089 657.342 681.516 657.105 681.094 656.683C680.672 656.261 680.435 655.688 680.435 655.091C680.435 654.494 680.672 653.921 681.094 653.499C681.516 653.077 682.089 652.839 682.686 652.839H735.82C736.417 652.839 736.99 653.077 737.412 653.499C737.834 653.921 738.071 654.494 738.071 655.091C738.071 655.688 737.834 656.261 737.412 656.683C736.99 657.105 736.417 657.342 735.82 657.342Z" fill="#F2F2F2"/>
<path d="M770.942 632.126H479.157C478.56 632.126 477.987 631.889 477.565 631.467C477.143 631.045 476.906 630.472 476.906 629.875C476.906 629.278 477.143 628.705 477.565 628.283C477.987 627.861 478.56 627.623 479.157 627.623H770.942C771.539 627.623 772.112 627.861 772.534 628.283C772.956 628.705 773.194 629.278 773.194 629.875C773.194 630.472 772.956 631.045 772.534 631.467C772.112 631.889 771.539 632.126 770.942 632.126Z" fill="#F2F2F2"/>
<path d="M435.029 632.126H381.895C381.298 632.126 380.725 631.889 380.303 631.467C379.881 631.045 379.644 630.472 379.644 629.875C379.644 629.278 379.881 628.705 380.303 628.283C380.725 627.861 381.298 627.623 381.895 627.623H435.029C435.626 627.623 436.199 627.861 436.621 628.283C437.043 628.705 437.28 629.278 437.28 629.875C437.28 630.472 437.043 631.045 436.621 631.467C436.199 631.889 435.626 632.126 435.029 632.126Z" fill="#F2F2F2"/>
<path d="M770.942 706.874H479.157C478.861 706.874 478.568 706.817 478.294 706.704C478.02 706.591 477.771 706.425 477.562 706.216C477.352 706.007 477.186 705.758 477.073 705.485C476.959 705.212 476.901 704.918 476.901 704.622C476.901 704.326 476.959 704.033 477.073 703.76C477.186 703.486 477.352 703.238 477.562 703.029C477.771 702.82 478.02 702.654 478.294 702.541C478.568 702.428 478.861 702.37 479.157 702.371H770.942C771.539 702.371 772.112 702.608 772.534 703.03C772.956 703.453 773.194 704.025 773.194 704.622C773.194 705.219 772.956 705.792 772.534 706.214C772.112 706.637 771.539 706.874 770.942 706.874Z" fill="#F2F2F2"/>
<path d="M435.029 706.874H381.895C381.599 706.874 381.306 706.817 381.032 706.704C380.759 706.591 380.51 706.425 380.3 706.216C380.091 706.007 379.924 705.758 379.811 705.485C379.697 705.212 379.639 704.918 379.639 704.622C379.639 704.326 379.697 704.033 379.811 703.76C379.924 703.486 380.091 703.238 380.3 703.029C380.51 702.82 380.759 702.654 381.032 702.541C381.306 702.428 381.599 702.37 381.895 702.371H435.029C435.325 702.37 435.618 702.428 435.892 702.541C436.166 702.654 436.414 702.82 436.624 703.029C436.834 703.238 437 703.486 437.113 703.76C437.227 704.033 437.285 704.326 437.285 704.622C437.285 704.918 437.227 705.212 437.113 705.485C437 705.758 436.834 706.007 436.624 706.216C436.414 706.425 436.166 706.591 435.892 706.704C435.618 706.817 435.325 706.874 435.029 706.874Z" fill="#F2F2F2"/>
<path d="M523.06 401.13L451.014 472.275L523.06 543.42L539.27 527.21L484.786 472.725L539.72 417.79L523.06 401.13Z" fill="#6C63FF"/>
<path d="M629.327 401.13L701.373 472.275L629.327 543.42L613.117 527.21L667.602 472.725L612.667 417.79L629.327 401.13Z" fill="#6C63FF"/>
<path d="M220.194 186C225.164 186 229.194 181.971 229.194 177C229.194 172.029 225.164 168 220.194 168C215.223 168 211.194 172.029 211.194 177C211.194 181.971 215.223 186 220.194 186Z" fill="#6C63FF"/>
<path d="M244.194 186C249.164 186 253.194 181.971 253.194 177C253.194 172.029 249.164 168 244.194 168C239.223 168 235.194 172.029 235.194 177C235.194 181.971 239.223 186 244.194 186Z" fill="#6C63FF"/>
<path d="M268.194 186C273.164 186 277.194 181.971 277.194 177C277.194 172.029 273.164 168 268.194 168C263.223 168 259.194 172.029 259.194 177C259.194 181.971 263.223 186 268.194 186Z" fill="#6C63FF"/>
<path opacity="0.1" d="M952.194 192H200.194V195H952.194V192Z" fill="black"/>
<path d="M126.622 751.091C124.024 752.538 121.283 753.712 118.444 754.594C113.365 755.981 107.936 755.472 102.806 756.657C100.706 757.142 98.4201 758.156 97.7521 760.205C97.2622 761.709 97.7952 763.332 98.3056 764.829C103.974 781.448 107.391 799.095 116.431 814.149C120.23 820.472 124.945 826.197 130.423 831.137C132.479 832.989 134.808 834.801 137.559 835.092C138.827 835.226 140.108 835.023 141.272 834.503C142.437 833.984 143.444 833.167 144.191 832.134C144.939 831.101 145.401 829.889 145.53 828.621C145.66 827.352 145.453 826.072 144.929 824.91C144.119 823.108 142.612 821.713 141.64 819.994C140.587 817.804 139.969 815.429 139.821 813.003C138.928 805.895 138.067 798.466 140.53 791.738C142.182 787.226 145.212 783.379 147.737 779.291C150.261 775.202 152.358 770.519 151.797 765.747C151.413 762.49 149.825 759.51 148.147 756.693C146.465 753.87 143.142 746.284 139.764 745.342C136.257 744.364 129.68 749.524 126.622 751.091Z" fill="#2F2E41"/>
<path d="M219.057 808.5C219.109 810.108 218.885 811.713 218.393 813.245C217.336 816.038 214.712 817.951 213.357 820.612C211.472 824.313 212.326 828.786 213.575 832.747C214.358 835.23 215.385 837.814 217.488 839.35C219.286 840.464 221.331 841.119 223.442 841.257C241.478 843.753 259.8 842.321 278 842.844C281.317 842.939 284.83 843.055 287.725 841.434C290.621 839.813 292.411 835.737 290.442 833.066C288.673 830.668 285.177 830.69 282.2 830.549C274.448 830.155 267.067 827.114 261.287 821.934C260.147 820.96 259.158 819.822 258.353 818.557C257.734 817.435 257.221 816.257 256.819 815.04C254.268 808.128 251.232 801.406 247.736 794.921C246.757 793.106 245.649 791.216 243.83 790.245C242.498 789.639 241.053 789.324 239.59 789.319C235.054 789.025 223.307 787.481 219.799 791.009C216.558 794.268 219.128 804.36 219.057 808.5Z" fill="#2F2E41"/>
<path d="M246.971 405.695C262.973 405.695 275.946 392.723 275.946 376.72C275.946 360.718 262.973 347.745 246.971 347.745C230.968 347.745 217.996 360.718 217.996 376.72C217.996 392.723 230.968 405.695 246.971 405.695Z" fill="#FBBEBE"/>
<path d="M220.806 400.646C219.082 405.26 216.159 409.593 211.905 412.076L251.98 420.25C250.526 414.402 250.335 408.31 251.418 402.381C251.816 400.946 251.898 399.442 251.658 397.972C250.904 395.065 247.631 393.666 244.703 392.998C237.389 391.331 230.921 390.437 224.124 387.206C222.047 390.763 222.337 396.545 220.806 400.646Z" fill="#FBBEBE"/>
<path d="M211.571 401.227C215.882 399.276 220.579 398.327 225.309 398.45C230.039 398.574 234.68 399.767 238.884 401.941C244.022 404.648 248.276 408.735 252.455 412.767C256.308 416.484 260.418 420.739 260.691 426.086C260.824 428.676 260.015 431.208 259.607 433.769C258.874 439.066 259.806 444.459 262.275 449.202C264.744 453.945 268.628 457.802 273.387 460.239C276.571 465.542 277.228 471.968 277.277 478.153C277.462 501.589 270.067 525.314 275.346 548.148C276.586 553.51 278.508 558.702 279.578 564.1C280.965 571.091 280.897 578.279 281.622 585.369C282.409 593.047 284.126 600.601 286.736 607.865C284.992 610.639 281.362 611.702 278.093 611.478C274.825 611.253 271.768 609.834 268.851 608.342C254.728 601.115 241.792 591.585 227.164 585.442C217.487 581.379 207.177 578.847 197.789 574.154C188.4 569.461 179.669 562.012 176.798 551.916C175.557 547.551 175.48 542.951 175.413 538.413C175.127 519.299 174.862 499.977 179.023 481.319C182.692 464.866 189.764 449.125 191.307 432.338C191.809 426.874 191.82 421.025 194.873 416.465C199.188 410.02 208.505 408.351 211.571 401.227Z" fill="#2F2E41"/>
<path d="M230.492 377.129C232.199 374.903 235.492 374.599 238.219 375.258C240.947 375.916 243.462 377.322 246.217 377.856C246.843 378.034 247.499 378.079 248.144 377.988C248.789 377.898 249.407 377.674 249.96 377.33C250.923 376.382 251.499 375.109 251.576 373.76C252.54 368.019 252.766 362.178 252.246 356.38C252.103 355.566 252.157 354.73 252.405 353.942C253.087 352.299 255.168 351.908 256.867 351.38C259.671 350.433 262.079 348.578 263.711 346.109C265.343 343.64 266.107 340.698 265.88 337.747C265.838 336.332 265.243 334.989 264.223 334.007C263.048 333.049 261.403 332.99 259.887 332.978C252.099 332.916 244.31 332.917 236.521 332.984C233.638 333.008 230.61 333.079 228.111 334.516C226.264 335.579 224.89 337.289 223.231 338.628C218.905 342.119 213.053 342.829 207.79 344.619C205.22 345.35 202.887 346.742 201.022 348.654C199.272 350.654 198.43 353.628 199.53 356.047C200.094 357.055 200.724 358.025 201.416 358.951C204.521 363.915 202.454 370.354 202.918 376.191C203.497 383.479 214.283 395.302 221.597 397.027C233.404 399.811 226.583 381.914 230.492 377.129Z" fill="#2F2E41"/>
<path d="M214.134 696.683C214.879 702.004 215.835 707.344 215.58 712.712C215.223 720.206 212.52 727.426 212.021 734.911C211.648 740.502 212.511 746.153 211.734 751.703C211.237 755.256 210.078 758.681 209.361 762.196C208.225 767.925 208.257 773.824 209.455 779.54C210.654 785.256 212.993 790.672 216.334 795.462C216.825 796.282 217.523 796.958 218.358 797.423C219.158 797.719 220.015 797.833 220.865 797.755C229.299 797.583 237.71 796.819 246.036 795.467C246.645 795.442 247.223 795.187 247.652 794.754C247.84 794.467 247.96 794.141 248.003 793.8C249.547 785.864 246.026 777.907 245.131 769.872C244.175 761.292 246.234 752.694 248.277 744.307C249.204 740.169 250.361 736.087 251.744 732.079C252.732 729.382 253.925 726.758 254.781 724.016C255.993 719.709 256.732 715.282 256.983 710.814C257.577 703.764 257.892 696.697 257.928 689.615C258.13 682.903 257.571 676.191 256.263 669.605C254.385 661.267 250.539 653.524 246.727 645.875C244.688 646.363 242.775 647.273 241.109 648.545C236.196 651.726 231.067 654.56 225.759 657.025C222.192 658.682 215.237 659.859 212.973 663.311C210.741 666.716 212.181 673.662 212.352 677.417C212.645 683.862 213.239 690.284 214.134 696.683Z" fill="#2F2E41"/>
<path opacity="0.1" d="M214.134 696.683C214.879 702.004 215.835 707.344 215.58 712.712C215.223 720.206 212.52 727.426 212.021 734.911C211.648 740.502 212.511 746.153 211.734 751.703C211.237 755.256 210.078 758.681 209.361 762.196C208.225 767.925 208.257 773.824 209.455 779.54C210.654 785.256 212.993 790.672 216.334 795.462C216.825 796.282 217.523 796.958 218.358 797.423C219.158 797.719 220.015 797.833 220.865 797.755C229.299 797.583 237.71 796.819 246.036 795.467C246.645 795.442 247.223 795.187 247.652 794.754C247.84 794.467 247.96 794.141 248.003 793.8C249.547 785.864 246.026 777.907 245.131 769.872C244.175 761.292 246.234 752.694 248.277 744.307C249.204 740.169 250.361 736.087 251.744 732.079C252.732 729.382 253.925 726.758 254.781 724.016C255.993 719.709 256.732 715.282 256.983 710.814C257.577 703.764 257.892 696.697 257.928 689.615C258.13 682.903 257.571 676.191 256.263 669.605C254.385 661.267 250.539 653.524 246.727 645.875C244.688 646.363 242.775 647.273 241.109 648.545C236.196 651.726 231.067 654.56 225.759 657.025C222.192 658.682 215.237 659.859 212.973 663.311C210.741 666.716 212.181 673.662 212.352 677.417C212.645 683.862 213.239 690.284 214.134 696.683Z" fill="black"/>
<path d="M174.961 583.018C171.113 593.377 176.769 604.572 181.683 614.47C193.789 638.856 202.196 664.878 210.558 690.787C211.184 692.728 211.81 694.846 211.112 696.762C210.509 698.123 209.53 699.284 208.29 700.109C202.524 704.488 195.183 706.047 188.315 708.338C181.678 710.554 175.321 713.534 169.372 717.218C164.396 720.302 159.733 723.862 155.081 727.416L140.269 738.728C139.31 739.376 138.472 740.188 137.793 741.125C136.364 743.366 136.949 746.292 137.661 748.853C139.544 755.634 141.969 762.253 144.913 768.645C145.397 770.046 146.319 771.255 147.543 772.092C149.855 773.334 152.682 771.687 154.448 769.745C156.213 767.803 157.74 765.386 160.229 764.552C162.715 763.719 165.451 764.728 168.047 764.363C172.245 763.774 175.033 759.906 178.059 756.937C190.425 744.805 211.069 745.686 224.672 734.96C226.638 733.2 228.72 731.574 230.903 730.092C233.202 728.733 235.81 727.987 238.196 726.785C245.453 723.131 250.015 715.577 252.458 707.828C254.902 700.08 255.599 691.901 257.355 683.968C258.263 679.867 259.458 675.81 259.862 671.629C260.122 667.741 260.037 663.837 259.609 659.963L254.701 599.248C254.301 594.304 253.901 589.355 253.125 584.457C238.548 584.978 223.982 585.565 209.397 585.737C197.792 585.874 185.973 586.686 174.961 583.018Z" fill="#2F2E41"/>
<path d="M169.603 597.221C171.58 600.401 176.393 600.335 179.707 598.592C183.021 596.848 185.596 593.919 188.917 592.191C193.381 589.868 198.664 589.955 203.694 590.097C211.657 590.322 219.719 590.562 227.381 592.744C235.305 595.001 243.02 599.347 251.215 598.48C252.64 598.329 254.2 597.921 254.976 596.715C255.43 595.841 255.644 594.863 255.595 593.879L255.863 586.72C256.027 585.482 255.829 584.223 255.293 583.095C254.606 582.156 253.663 581.434 252.577 581.015C240.914 575.369 227.613 574.318 214.662 573.874C208.079 573.649 201.493 573.556 194.905 573.596C189.314 573.63 182.602 572.821 177.166 574.315C169.871 576.32 165.901 591.269 169.603 597.221Z" fill="#2F2E41"/>
<path d="M242.839 409.726C227.557 409.59 213.708 399.503 198.427 399.257C196.581 399.13 194.731 399.449 193.035 400.188C190.906 401.26 189.506 403.334 187.888 405.086C183.37 409.979 176.827 412.591 172.185 417.367C167.833 421.845 165.412 428.517 167.13 434.52C168.849 440.524 175.334 445.129 181.409 443.685C183.857 435.762 188.909 428.898 195.746 424.206C199.304 421.924 203.053 419.956 206.952 418.324C213.82 415.212 221.499 412.041 228.67 414.374C231.314 415.372 233.807 416.732 236.079 418.414L248.033 426.444C246.64 420.95 245.387 414.788 242.839 409.726Z" fill="#6C63FF"/>
<path d="M179.649 438.374C177.62 440.906 180.543 444.574 180.096 447.787C179.798 449.922 178.041 451.552 177.31 453.58C176.552 455.681 176.954 458.007 176.666 460.222C176.378 461.832 175.951 463.414 175.391 464.951C174.104 469.543 173.205 474.235 172.705 478.977L170.03 498.953C169.566 501.959 169.283 504.99 169.184 508.03C169.319 510.303 169.167 512.583 168.732 514.817C168.139 517 166.828 518.91 165.946 520.993C165.063 523.075 164.654 525.595 165.846 527.517C161.855 530.842 160.668 537.371 163.459 541.752C163.99 542.435 164.406 543.2 164.689 544.017C164.843 545.16 164.655 546.322 164.147 547.357L161.443 554.564C160.75 556.409 160.531 559.217 162.456 559.638C160.862 561.294 159.62 563.256 158.805 565.405C158.41 566.484 158.291 567.645 158.461 568.782C158.631 569.919 159.084 570.994 159.777 571.911C160.449 572.5 161.021 573.195 161.472 573.967C161.736 575.043 161.668 576.174 161.276 577.21C160.871 578.784 160.793 580.424 161.047 582.029C161.3 583.634 161.879 585.171 162.749 586.544C163.65 587.898 164.926 588.96 166.421 589.601C167.916 590.242 169.565 590.434 171.167 590.152C176.578 588.932 181.44 587.005 186.895 588.006C198.641 590.162 210.425 592.326 221.801 595.958C234.785 600.104 247.357 606.183 260.927 607.459C261.82 607.642 262.748 607.497 263.544 607.052C264.235 606.397 264.665 605.513 264.754 604.564C266.152 598.009 267.55 591.454 268.948 584.899C270.638 577.634 271.925 570.28 272.803 562.872C273.28 558.091 273.416 553.283 273.552 548.479L274.633 510.248C275.139 504.614 274.388 498.937 272.433 493.629L266.215 473.781C262.667 462.454 254.528 452.409 251.63 440.899C249.796 433.614 248.441 425.796 243.522 420.118C236.509 412.023 224.377 410.764 213.758 412.156C208.961 412.784 204.122 413.87 199.973 416.357C195.175 419.234 191.64 423.766 188.22 428.194C185.402 431.843 182.533 434.776 179.649 438.374Z" fill="#6C63FF"/>
<path d="M204.444 550.823C205.319 554.596 207.156 558.075 208.281 561.78C210.165 567.989 210.006 574.676 211.886 580.886C212.676 583.492 213.819 585.995 214.386 588.659C215.707 594.869 213.778 601.294 211.382 607.174C208.987 613.055 206.069 618.852 205.291 625.154C204.743 629.592 205.53 634.604 208.951 637.485C212.503 640.475 217.664 640.272 222.29 639.874C223.951 639.828 225.59 639.487 227.131 638.866C230.669 637.193 232.159 633.007 232.986 629.181C235.757 616.362 234.966 603.075 234.16 589.985L232.054 555.75C231.649 549.16 231.214 542.432 229.183 536.104C228.445 533.802 227.157 529.15 225.054 527.68C222.972 526.225 217.024 526.16 214.446 526.039C202.348 525.47 202.483 542.356 204.444 550.823Z" fill="#FBBEBE"/>
<path d="M217.848 424.423C215.377 423.13 212.265 423.687 209.876 425.128C207.57 426.707 205.551 428.668 203.904 430.926C198.566 437.443 192.914 444.921 193.706 453.308C194.002 456.453 195.207 459.429 196.023 462.48C199.602 475.86 195.644 490.01 196.098 503.853C196.361 511.852 198.101 519.72 199.835 527.533C200.188 529.127 200.755 530.973 202.297 531.51C203.456 531.913 204.708 531.395 205.855 530.959C210.127 529.38 214.717 528.853 219.236 529.423C223.755 529.992 228.071 531.641 231.818 534.231C234.683 532.702 233.609 527.868 232.967 524.685C231.058 515.228 233.649 505.471 236.795 496.35C239.941 487.229 243.706 478.12 244.227 468.485C244.818 457.569 241.198 446.915 237.627 436.582C236.848 434.327 235.996 431.962 234.189 430.404C232.641 429.254 230.868 428.443 228.986 428.027C225.193 426.906 221.352 426.258 217.848 424.423Z" fill="#2F2E41"/>
</g>
<defs>
<filter id="filter0_d" x="0" y="0" width="1134.19" height="863" filterUnits="userSpaceOnUse" color-interpolation-filters="sRGB">
<feFlood flood-opacity="0" result="BackgroundImageFix"/>
<feColorMatrix in="SourceAlpha" type="matrix" values="0 0 0 0 0 0 0 0 0 0 0 0 0 0 0 0 0 0 127 0"/>
<feOffset dy="4"/>
<feGaussianBlur stdDeviation="2"/>
<feColorMatrix type="matrix" values="0 0 0 0 0 0 0 0 0 0 0 0 0 0 0 0 0 0 0.25 0"/>
<feBlend mode="normal" in2="BackgroundImageFix" result="effect1_dropShadow"/>
<feBlend mode="normal" in="SourceGraphic" in2="effect1_dropShadow" result="shape"/>
</filter>
<clipPath id="clip0">
<rect width="1126.19" height="855" fill="white" transform="translate(4)"/>
</clipPath>
</defs>
</svg>
